<svg data-v-423bf9ae="" xmlns="http://www.w3.org/2000/svg" viewBox="0 0 272.05405460206265 60" class="font"><!----><!----><!----><g data-v-423bf9ae="" id="1cb6bd10-cf49-4463-8046-face9b172ea6" fill="white" transform="matrix(5.405405219639779,0,0,5.405405219639779,-6.810809027170478,-24.810809829271655)"><path d="M5.11 4.62Q6.19 4.62 7.08 5.13Q7.97 5.64 8.47 6.53Q8.97 7.42 8.97 8.51L8.97 8.51Q8.97 9.60 8.51 10.49Q8.04 11.38 7.22 11.89Q6.40 12.39 5.39 12.39L5.39 12.39Q4.58 12.39 3.88 12.05Q3.18 11.72 2.69 11.12L2.69 11.12L2.69 14.90Q2.69 15.22 2.49 15.41Q2.30 15.61 1.97 15.61L1.97 15.61Q1.67 15.61 1.46 15.41Q1.26 15.22 1.26 14.90L1.26 14.90L1.26 8.51Q1.26 7.42 1.77 6.53Q2.28 5.64 3.16 5.13Q4.03 4.62 5.11 4.62L5.11 4.62ZM5.11 11.13Q5.81 11.13 6.38 10.79Q6.94 10.44 7.27 9.85Q7.60 9.25 7.60 8.51L7.60 8.51Q7.60 7.77 7.27 7.17Q6.94 6.57 6.38 6.22Q5.81 5.88 5.11 5.88L5.11 5.88Q4.41 5.88 3.84 6.22Q3.28 6.57 2.95 7.17Q2.63 7.77 2.63 8.51L2.63 8.51Q2.63 9.25 2.95 9.85Q3.28 10.44 3.84 10.79Q4.41 11.13 5.11 11.13L5.11 11.13ZM14.85 4.59Q15.60 4.59 16.02 4.82Q16.44 5.04 16.44 5.38L16.44 5.38Q16.44 5.47 16.42 5.52L16.42 5.52Q16.30 5.96 15.86 5.96L15.86 5.96Q15.79 5.96 15.65 5.94L15.65 5.94Q15.09 5.84 14.74 5.84L14.74 5.84Q13.73 5.84 13.12 6.30Q12.50 6.76 12.50 7.55L12.50 7.55L12.50 11.63Q12.50 11.97 12.33 12.15Q12.15 12.33 11.80 12.33L11.80 12.33Q11.47 12.33 11.28 12.16Q11.10 11.98 11.10 11.63L11.10 11.63L11.10 5.38Q11.10 5.04 11.28 4.86Q11.47 4.68 11.80 4.68L11.80 4.68Q12.50 4.68 12.50 5.38L12.50 5.38L12.50 5.64Q12.92 5.15 13.54 4.87Q14.15 4.59 14.85 4.59L14.85 4.59ZM24.22 8.39Q24.22 8.65 24.04 8.83Q23.86 9.00 23.58 9.00L23.58 9.00L18.26 9.00Q18.41 9.98 19.15 10.58Q19.88 11.19 20.94 11.19L20.94 11.19Q21.36 11.19 21.82 11.03Q22.27 10.88 22.57 10.65L22.57 10.65Q22.76 10.50 23.03 10.50L23.03 10.50Q23.30 10.50 23.45 10.64L23.45 10.64Q23.70 10.85 23.70 11.12L23.70 11.12Q23.70 11.37 23.48 11.54L23.48 11.54Q23.00 11.91 22.30 12.15Q21.59 12.39 20.94 12.39L20.94 12.39Q19.80 12.39 18.89 11.89Q17.98 11.40 17.47 10.51Q16.95 9.63 16.95 8.51L16.95 8.51Q16.95 7.39 17.44 6.50Q17.92 5.61 18.78 5.12Q19.64 4.62 20.73 4.62L20.73 4.62Q21.81 4.62 22.60 5.10Q23.38 5.57 23.80 6.43Q24.22 7.28 24.22 8.39L24.22 8.39ZM20.73 5.82Q19.71 5.82 19.08 6.38Q18.44 6.94 18.27 7.88L18.27 7.88L22.93 7.88Q22.81 6.94 22.23 6.38Q21.66 5.82 20.73 5.82L20.73 5.82ZM29.89 4.62Q30.97 4.62 31.86 5.13Q32.75 5.64 33.25 6.53Q33.75 7.42 33.75 8.51L33.75 8.51Q33.75 9.60 33.29 10.49Q32.82 11.38 32.00 11.89Q31.18 12.39 30.17 12.39L30.17 12.39Q29.36 12.39 28.66 12.05Q27.96 11.72 27.47 11.12L27.47 11.12L27.47 14.90Q27.47 15.22 27.27 15.41Q27.08 15.61 26.75 15.61L26.75 15.61Q26.45 15.61 26.24 15.41Q26.04 15.22 26.04 14.90L26.04 14.90L26.04 8.51Q26.04 7.42 26.55 6.53Q27.06 5.64 27.94 5.13Q28.81 4.62 29.89 4.62L29.89 4.62ZM29.89 11.13Q30.59 11.13 31.16 10.79Q31.72 10.44 32.05 9.85Q32.38 9.25 32.38 8.51L32.38 8.51Q32.38 7.77 32.05 7.17Q31.72 6.57 31.16 6.22Q30.59 5.88 29.89 5.88L29.89 5.88Q29.19 5.88 28.62 6.22Q28.06 6.57 27.73 7.17Q27.41 7.77 27.41 8.51L27.41 8.51Q27.41 9.25 27.73 9.85Q28.06 10.44 28.62 10.79Q29.19 11.13 29.89 11.13L29.89 11.13ZM39.73 4.62Q40.81 4.62 41.70 5.13Q42.59 5.64 43.09 6.53Q43.60 7.42 43.60 8.51L43.60 8.51Q43.60 9.60 43.13 10.49Q42.66 11.38 41.84 11.89Q41.02 12.39 40.01 12.39L40.01 12.39Q39.20 12.39 38.50 12.05Q37.80 11.72 37.31 11.12L37.31 11.12L37.31 14.90Q37.31 15.22 37.11 15.41Q36.92 15.61 36.60 15.61L36.60 15.61Q36.29 15.61 36.09 15.41Q35.88 15.22 35.88 14.90L35.88 14.90L35.88 8.51Q35.88 7.42 36.39 6.53Q36.90 5.64 37.78 5.13Q38.65 4.62 39.73 4.62L39.73 4.62ZM39.73 11.13Q40.43 11.13 41.00 10.79Q41.57 10.44 41.90 9.85Q42.22 9.25 42.22 8.51L42.22 8.51Q42.22 7.77 41.90 7.17Q41.57 6.57 41.00 6.22Q40.43 5.88 39.73 5.88L39.73 5.88Q39.03 5.88 38.47 6.22Q37.90 6.57 37.58 7.17Q37.25 7.77 37.25 8.51L37.25 8.51Q37.25 9.25 37.58 9.85Q37.90 10.44 38.47 10.79Q39.03 11.13 39.73 11.13L39.73 11.13ZM51.16 4.75Q51.59 4.91 51.59 5.29L51.59 5.29Q51.59 5.43 51.51 5.63L51.51 5.63L47.22 15.26Q47.05 15.69 46.68 15.69L46.68 15.69Q46.54 15.69 46.34 15.61L46.34 15.61Q45.92 15.43 45.92 15.06L45.92 15.06Q45.92 14.90 46.00 14.73L46.00 14.73L47.40 11.58L44.25 5.60Q44.18 5.47 44.18 5.31L44.18 5.31Q44.18 5.12 44.30 4.97Q44.41 4.82 44.59 4.73L44.59 4.73Q44.72 4.68 44.87 4.68L44.87 4.68Q45.26 4.68 45.46 5.07L45.46 5.07L48.02 10.16L50.27 5.08Q50.46 4.68 50.82 4.68L50.82 4.68Q51.00 4.68 51.16 4.75L51.16 4.75Z"></path></g><!----><!----></svg>